<?xml version="1.0" encoding="UTF-8" standalone="no"?>
<!-- Created with Inkscape (http://www.inkscape.org/) -->

<svg
   width="132.58943mm"
   height="133.09666mm"
   viewBox="0 0 132.58943 133.09666"
   version="1.1"
   id="svg1"
   xml:space="preserve"
   inkscape:version="1.4.2 (f4327f4, 2025-05-13)"
   sodipodi:docname="drawing.svg"
   xmlns:inkscape="http://www.inkscape.org/namespaces/inkscape"
   xmlns:sodipodi="http://sodipodi.sourceforge.net/DTD/sodipodi-0.dtd"
   xmlns="http://www.w3.org/2000/svg"
   xmlns:svg="http://www.w3.org/2000/svg"><sodipodi:namedview
     id="namedview1"
     pagecolor="#ffffff"
     bordercolor="#999999"
     borderopacity="1"
     inkscape:showpageshadow="2"
     inkscape:pageopacity="0"
     inkscape:pagecheckerboard="true"
     inkscape:deskcolor="#d1d1d1"
     inkscape:document-units="mm"
     inkscape:zoom="0.48693448"
     inkscape:cx="1096.6568"
     inkscape:cy="385.06207"
     inkscape:window-width="1920"
     inkscape:window-height="991"
     inkscape:window-x="1911"
     inkscape:window-y="-9"
     inkscape:window-maximized="1"
     inkscape:current-layer="layer1" /><defs
     id="defs1" /><g
     inkscape:label="Layer 1"
     inkscape:groupmode="layer"
     id="layer1"
     transform="translate(-44.034639,-82.189903)"><g
       id="g34"
       transform="translate(2.4903851,-12.219095)"><path
         style="fill:#e4a723"
         d="m 102.05346,227.35417 c -1.97245,-0.4978 -2.221763,-1.27321 -1.98148,-6.16284 0.0885,-1.80009 0.22363,-4.76195 0.4316,-9.4575 0.32395,-7.31401 0.33947,-7.50318 0.66915,-8.15565 1.12355,-2.22363 4.69469,-2.34324 5.7158,-0.19145 0.26728,0.56323 0.28876,1.30384 0.13212,4.55644 -0.0669,1.38991 -0.17421,3.69877 -0.23841,5.13079 -0.0642,1.43203 -0.16744,3.72365 -0.22944,5.0925 -0.062,1.36885 -0.14937,3.3331 -0.19418,4.365 -0.16893,3.89033 -1.60874,5.50322 -4.30516,4.82271 z m 41.5928,-11.50977 c -0.41624,-0.15543 -0.75976,-0.38876 -1.11243,-0.75559 -0.50461,-0.52488 -12.16049,-15.98772 -12.38398,-16.42874 -1.47072,-2.90232 2.31473,-6.18643 4.67399,-4.05497 0.16576,0.14975 1.32442,1.62689 2.5748,3.28254 1.25038,1.65565 3.90716,5.17016 5.90396,7.81003 4.72647,6.24862 4.46013,5.81931 4.39501,7.08441 -0.10288,1.99843 -2.35059,3.69743 -4.05135,3.06232 z m -80.590307,-6.13408 c -1.587035,-0.451 -2.603683,-1.61943 -2.603683,-2.99241 0,-1.06134 0.02613,-1.09763 3.722173,-5.16908 1.777921,-1.9585 4.860981,-5.35492 6.851244,-7.54758 4.226212,-4.65601 4.285302,-4.70504 5.66982,-4.70504 3.200807,0 4.362636,3.08799 2.089658,5.55405 -0.708543,0.76873 -7.217219,7.94242 -10.314945,11.36887 -3.227857,3.57038 -3.811432,3.94668 -5.414267,3.49119 z M 105.97844,195.57359 C 74.342299,193.11835 65.802893,146.3343 94.560012,133.01651 c 21.287798,-9.85866 49.806248,6.6266 47.952568,27.71926 -1.74168,19.81822 -18.92572,36.20439 -36.53414,34.83782 z m 63.13933,-15.21475 c -0.24246,-0.0304 -1.46674,-0.30795 -5.16908,-1.17172 -1.24249,-0.28989 -3.2412,-0.7551 -4.44158,-1.03382 -2.42718,-0.56358 -5.9238,-1.37857 -8.41473,-1.9613 -3.02842,-0.70848 -3.91694,-1.51232 -3.91357,-3.54063 0.005,-2.74393 1.4914,-3.5271 5.10061,-2.68665 1.00588,0.23423 3.51744,0.81799 5.58124,1.29725 3.47175,0.8062 4.97516,1.15639 10.3218,2.40422 2.23043,0.52055 2.52898,0.64568 3.15569,1.32259 1.89297,2.04463 0.38291,5.69676 -2.22038,5.37006 z M 44.06438,171.04437 c -2.793072,-0.72182 -3.466099,-4.70978 -0.992458,-5.8807 0.393654,-0.18634 0.787136,-0.26463 2.641973,-0.52565 2.544001,-0.35801 3.448941,-0.48485 8.994955,-1.26074 2.274395,-0.3182 4.479868,-0.62895 4.901052,-0.69058 3.544192,-0.51854 4.190967,-0.58931 4.648723,-0.50868 2.909993,0.51259 3.800268,4.68939 1.25954,5.90925 -0.524836,0.25198 -0.368974,0.22521 -5.333921,0.91604 -2.12698,0.29594 -4.332453,0.60531 -4.901052,0.68748 -0.568598,0.0822 -2.291624,0.32459 -3.828946,0.5387 -1.537322,0.21411 -3.518292,0.49142 -4.402157,0.61625 -2.054174,0.29011 -2.515144,0.32076 -2.987709,0.19863 z m 103.42814,-25.17205 c -2.45346,-0.50089 -3.64947,-3.55029 -2.0283,-5.17145 0.39085,-0.39086 0.9496,-0.68231 9.62941,-5.0229 l 9.21448,-4.60797 0.65051,-0.0341 c 2.9052,-0.15248 4.73015,3.40276 2.69939,5.25876 -0.3652,0.33377 -17.26077,8.91786 -18.52734,9.41314 -0.47051,0.18399 -1.18932,0.2562 -1.63815,0.16457 z m -76.584077,-6.40415 c -0.50796,-0.10708 -1.439691,-0.65877 -8.809726,-5.21641 -10.065387,-6.22446 -9.372939,-5.77667 -9.775868,-6.32173 -1.678296,-2.2703 0.259679,-5.73362 2.901484,-5.18518 0.358722,0.0745 1.001296,0.43927 3.635911,2.06417 15.196471,9.37245 14.670051,9.02675 15.11317,9.9247 1.097538,2.22407 -0.83231,5.2051 -3.064971,4.73445 z m 55.619697,-15.19473 c -1.968,-0.32879 -3.10394,-1.94184 -2.56515,-3.64256 0.0779,-0.24594 0.97832,-2.35971 2.00092,-4.69729 1.0226,-2.33757 2.76751,-6.32672 3.87758,-8.86479 2.56349,-5.86115 2.41604,-5.57967 3.18959,-6.08888 2.31787,-1.52578 5.5855,0.31567 5.04364,2.84231 -0.0471,0.21979 -0.43493,1.19974 -0.86177,2.17766 -0.42683,0.97793 -1.86033,4.25921 -3.18554,7.29173 -1.32522,3.03253 -2.7704,6.34074 -3.21151,7.35158 -1.29856,2.97576 -2.2283,3.87822 -3.81654,3.70455 -0.0421,-0.005 -0.25417,-0.038 -0.47122,-0.0743 z m -32.151406,-2.62202 c -1.28037,-0.42561 -1.366775,-0.5733 -2.765293,-4.72684 -6.042334,-17.945451 -5.711088,-16.77826 -5.117647,-18.032696 1.297642,-2.742989 4.810073,-2.602401 5.812148,0.232636 1.0814,3.05946 6.245145,18.66501 6.287035,19.00028 0.266297,2.13138 -2.202194,4.19611 -4.216243,3.52662 z"
         id="path35" /><path
         style="fill:#794748"
         d="m 123.908,225.28497 c -1.65583,-0.33834 -1.42351,0.19075 -4.99197,-11.36864 l -2.93142,-9.49579 -0.006,-0.76978 c -0.0222,-2.70365 3.5382,-4.30787 5.32931,-2.40128 0.48633,0.51768 0.35811,0.13766 3.64058,10.79067 l 2.8905,9.38092 5.6e-4,0.68921 c 0.002,1.93716 -2.01559,3.56612 -3.93125,3.17469 z m -42.702841,-3.36569 c -1.469159,-0.23015 -2.561852,-1.25244 -2.689737,-2.51643 -0.05746,-0.5679 0.08128,-1.1088 0.601916,-2.34678 0.483135,-1.14881 3.516038,-8.44644 3.771418,-9.07461 1.013651,-2.49333 3.462019,-8.30144 3.600477,-8.54118 1.608219,-2.7847 6.51378,-1.33331 5.942296,1.75813 -0.04465,0.24155 -0.57863,1.63395 -1.186614,3.09421 -1.4537,3.49152 -3.16058,7.60226 -3.375952,8.13042 -1.013473,2.48538 -3.300603,7.90223 -3.414634,8.08723 -0.625602,1.01497 -1.989367,1.60637 -3.24917,1.40901 z m 77.954541,-21.6529 c -0.21214,-0.0759 -2.36592,-1.42785 -4.78618,-3.0044 -2.42027,-1.57655 -6.19243,-4.03204 -8.38259,-5.45665 -2.19016,-1.4246 -4.13718,-2.72257 -4.32671,-2.88436 -2.02709,-1.73043 -0.82274,-5.51848 1.79961,-5.66031 0.82115,-0.0444 1.12634,0.10343 3.79065,1.83627 15.29658,9.94876 14.7497,9.58382 15.1142,10.08606 1.7105,2.35688 -0.59976,6.0166 -3.20898,5.08339 z M 49.756551,191.79427 c -2.086228,-0.85809 -2.88607,-3.3907 -1.541027,-4.87951 0.357364,-0.39556 0.561286,-0.51129 5.114906,-2.90289 3.873243,-2.03427 6.471487,-3.40343 9.95526,-5.24599 3.183339,-1.68366 3.553837,-1.86003 4.105031,-1.95413 2.834784,-0.48394 4.999512,3.3031 2.961772,5.18143 -0.382694,0.35275 -0.537657,0.44145 -3.429304,1.96288 -3.573778,1.88034 -10.658313,5.61412 -12.712102,6.69971 -2.709757,1.43231 -3.345286,1.59474 -4.454536,1.1385 z m 101.195629,-31.1731 c -2.45263,-0.76651 -3.13849,-4.35671 -1.08397,-5.67418 0.47807,-0.30656 0.99873,-0.39822 4.73785,-0.83406 2.00062,-0.23319 5.27437,-0.61463 7.275,-0.84764 2.00062,-0.233 4.82638,-0.56412 6.27947,-0.73581 4.44141,-0.52477 5.97316,0.27339 5.97316,3.11248 0,2.19675 -0.71733,2.61038 -5.50055,3.17178 -17.55149,2.05998 -17.04013,2.00771 -17.68096,1.80743 z m -86.479516,-7.50601 c -0.843676,-0.18123 -4.171567,-0.88984 -11.868298,-2.52712 -8.021066,-1.70628 -7.928455,-1.68103 -8.590082,-2.34265 -1.394194,-1.3942 -1.216121,-3.9793 0.346456,-5.02951 0.817457,-0.54942 1.323362,-0.54763 3.95377,0.014 5.567936,1.18879 11.762061,2.50437 15.162627,3.22041 3.214484,0.67687 3.883551,1.03152 4.365253,2.31389 0.982572,2.61578 -0.790413,4.90506 -3.369726,4.351 z m 74.287896,-19.91977 c -1.7238,-0.46346 -2.89581,-2.26585 -2.41632,-3.71597 0.21614,-0.65366 0.40645,-0.89496 2.1269,-2.6967 0.89277,-0.93496 3.63728,-3.8188 6.09892,-6.40854 7.00353,-7.36799 6.59848,-6.99163 7.75353,-7.20445 3.43226,-0.63242 4.99596,2.96411 2.44549,5.62466 -0.49026,0.51142 -3.23286,3.39379 -6.09466,6.40525 -6.77381,7.12806 -7.15589,7.51531 -7.65717,7.76076 -0.74954,0.36702 -1.48197,0.44329 -2.25669,0.23499 z m -57.599101,-4.80756 c -0.835238,-0.22521 -1.038413,-0.41378 -2.651272,-2.46069 -1.365822,-1.73339 -7.515453,-9.53135 -9.481488,-12.02289 -1.826713,-2.31497 -1.8538,-2.35441 -2.041482,-2.97231 -0.827939,-2.72581 2.427517,-5.37325 4.600006,-3.74087 0.271239,0.2038 1.197528,1.31477 3.01701,3.61851 3.381,4.28086 9.103258,11.53775 9.565616,12.13099 1.926244,2.47148 -0.143773,6.21964 -3.00839,5.44726 z m 28.531061,-8.50345 c -1.09056,-0.27023 -1.78195,-0.97069 -2.02394,-2.05049 -0.12941,-0.57746 0.40682,-20.647118 0.56567,-21.171326 0.89901,-2.966801 5.55169,-3.0192 6.09713,-0.06867 0.053,0.286542 0.018,2.648288 -0.11632,7.864416 -0.10561,4.10019 -0.21244,8.43702 -0.23739,9.63739 -0.0568,2.73025 -0.12865,3.48286 -0.38423,4.0231 -0.65297,1.38029 -2.35215,2.14934 -3.90092,1.76558 z"
         id="path34" /></g></g></svg>
