<?xml version="1.0" encoding="UTF-8" standalone="no"?>
<!-- Created with Inkscape (http://www.inkscape.org/) -->

<svg
   width="132.58943mm"
   height="133.09666mm"
   viewBox="0 0 132.58943 133.09666"
   version="1.1"
   id="svg1"
   xml:space="preserve"
   inkscape:version="1.4.2 (f4327f4, 2025-05-13)"
   sodipodi:docname="drawing.svg"
   xmlns:inkscape="http://www.inkscape.org/namespaces/inkscape"
   xmlns:sodipodi="http://sodipodi.sourceforge.net/DTD/sodipodi-0.dtd"
   xmlns="http://www.w3.org/2000/svg"
   xmlns:svg="http://www.w3.org/2000/svg"><sodipodi:namedview
     id="namedview1"
     pagecolor="#ffffff"
     bordercolor="#999999"
     borderopacity="1"
     inkscape:showpageshadow="2"
     inkscape:pageopacity="0"
     inkscape:pagecheckerboard="true"
     inkscape:deskcolor="#d1d1d1"
     inkscape:document-units="mm"
     inkscape:zoom="0.68862935"
     inkscape:cx="877.10464"
     inkscape:cy="260.66272"
     inkscape:window-width="1920"
     inkscape:window-height="991"
     inkscape:window-x="1911"
     inkscape:window-y="-9"
     inkscape:window-maximized="1"
     inkscape:current-layer="g34" /><defs
     id="defs1" /><g
     inkscape:label="Layer 1"
     inkscape:groupmode="layer"
     id="layer1"
     transform="translate(-44.034639,-82.189903)"><g
       id="g34"
       transform="rotate(0.71997238,1081.4734,353.03133)"><path
         style="fill:#e4a723"
         d="m 110.48236,227.21296 c -2.01961,-0.24403 -2.3651,-0.98163 -2.74589,-5.86233 -0.14014,-1.79681 -0.38114,-4.75194 -0.7694,-9.43603 -0.60478,-7.29616 -0.61334,-7.48577 -0.36893,-8.17473 0.83294,-2.348 4.36019,-2.91884 5.64555,-0.91366 0.33645,0.52485 0.45153,1.25678 0.70801,4.50303 0.10963,1.3872 0.29554,3.69106 0.41318,5.11968 0.11764,1.42864 0.30541,3.71488 0.41723,5.08057 0.11183,1.36568 0.27388,3.32518 0.36009,4.35445 0.32504,3.88041 -0.89895,5.66263 -3.65984,5.32902 z m 39.80062,-16.68372 c -0.43257,-0.10147 -0.80287,-0.28943 -1.19915,-0.60865 -0.56701,-0.45676 -14.08702,-14.31924 -14.36455,-14.72841 -1.82639,-2.69273 1.51275,-6.42973 4.12291,-4.61416 0.18339,0.12755 1.51976,1.44609 2.96972,2.93009 1.44996,1.48399 4.53037,4.63381 6.84537,6.99959 5.47964,5.59984 5.16109,5.20771 5.25668,6.47088 0.151,1.99537 -1.86349,3.9653 -3.63098,3.55066 z m -80.718345,4.11986 c -1.631368,-0.24641 -2.787783,-1.27671 -2.961633,-2.63864 -0.13439,-1.05279 -0.113066,-1.0921 3.03769,-5.59878 1.515619,-2.16786 4.1438,-5.92733 5.840402,-8.35436 3.602638,-5.15366 3.655045,-5.20978 5.028419,-5.38509 3.175043,-0.4053 4.71853,2.51072 2.776107,5.24474 -0.605501,0.85226 -6.153436,8.79236 -8.792362,12.58347 -2.749785,3.95036 -3.281014,4.39753 -4.928623,4.14866 z M 110.3516,195.19119 c -31.692385,1.57038 -46.086981,-43.75582 -19.247665,-60.60772 19.868125,-12.47482 50.244435,0.26666 51.076485,21.42426 0.78178,19.87924 -14.18909,38.30941 -31.82882,39.18346 z M 45.829937,178.69914 c -2.861989,-0.36234 -4.034565,-4.23298 -1.7291,-5.7077 0.366891,-0.23468 0.747292,-0.36217 2.554148,-0.85595 2.478192,-0.67726 3.359788,-0.91766 8.762916,-2.38956 2.215797,-0.60363 4.36417,-1.19114 4.77416,-1.30561 3.450006,-0.96314 4.082614,-1.11523 4.546895,-1.09321 2.951476,0.13999 4.363463,4.17044 1.997647,5.70219 -0.488705,0.31641 -0.337487,0.27012 -5.174996,1.58407 -2.072387,0.56288 -4.220935,1.14902 -4.774553,1.30253 -0.553613,0.15353 -2.232078,0.61215 -3.729915,1.01919 -1.497836,0.40705 -3.427748,0.93296 -4.288692,1.16871 -2.000906,0.54788 -2.454284,0.63665 -2.93851,0.57534 z m 99.408283,-38.06579 c -2.49713,-0.1862 -4.06964,-3.05961 -2.66679,-4.873 0.33821,-0.4372 0.85556,-0.79706 8.91589,-6.20177 l 8.55683,-5.73765 0.64096,-0.11619 c 2.86251,-0.51912 5.12294,2.77643 3.34354,4.87463 -0.32,0.37732 -15.99263,11.03168 -17.18629,11.68335 -0.44343,0.24209 -1.14731,0.40474 -1.60413,0.37068 z m -76.778554,3.34468 c -0.517431,-0.0419 -1.511518,-0.47117 -9.399333,-4.05891 -10.772528,-4.89985 -10.028953,-4.54335 -10.497656,-5.033 -1.952259,-2.03952 -0.468418,-5.72035 2.221568,-5.51084 0.365268,0.0285 1.048858,0.30895 3.868016,1.58717 16.26092,7.37279 15.694963,7.09653 16.248216,7.93114 1.370322,2.0672 -0.166526,5.2686 -2.440811,5.08444 z m 53.248014,-22.11515 c -1.99379,-0.077 -3.32484,-1.53318 -3.00574,-3.28843 0.0461,-0.25382 0.67166,-2.46459 1.39004,-4.91284 0.71837,-2.44824 1.94412,-6.62623 2.72388,-9.28443 1.8007,-6.13857 1.69008,-5.840685 2.39293,-6.443745 2.10601,-1.806994 5.58051,-0.394122 5.36294,2.180795 -0.0189,0.22398 -0.27951,1.24515 -0.57909,2.26925 -0.29957,1.0241 -1.30604,4.46049 -2.2366,7.6364 -0.93057,3.17592 -1.94522,6.6405 -2.25479,7.69906 -0.9113,3.11623 -1.71929,4.12915 -3.31674,4.15799 -0.0424,3.7e-4 -0.25693,-0.006 -0.47683,-0.014 z m -32.224627,1.47019 c -1.323956,-0.26006 -1.428366,-0.39562 -3.34156,-4.33865 -8.266001,-17.03591 -7.789629,-15.92005 -7.359804,-17.23954 0.939872,-2.885217 4.441833,-3.190514 5.794822,-0.50518 1.460093,2.8979 8.558293,17.72399 8.642298,18.05126 0.534035,2.08051 -1.653145,4.44119 -3.735756,4.03211 z"
         id="path35"
         sodipodi:nodetypes="scssscsssssscssssssssssssssssscsssccsscssccssccssccscsccssssssscssscssssssss" /><path
         style="fill:#794748"
         d="m 131.89899,222.39314 c -1.68535,-0.12595 -1.3879,0.36946 -6.39132,-10.64504 l -4.11021,-9.04817 -0.10342,-0.76283 c -0.36437,-2.67907 2.96424,-4.72121 4.98235,-3.05676 0.54797,0.45193 0.37266,0.0912 4.97762,10.24283 l 4.05508,8.93941 0.0878,0.68359 c 0.24727,1.92132 -1.54781,3.79264 -3.49762,3.64693 z m -42.785301,2.06855 c -1.486476,-0.0423 -2.699819,-0.91797 -2.986725,-2.1556 -0.128906,-0.55605 -0.05977,-1.11016 0.299916,-2.4041 0.33378,-1.20074 2.418226,-8.82367 2.592009,-9.47912 0.68978,-2.60161 2.383002,-8.67299 2.489989,-8.92833 1.242668,-2.96592 6.292523,-2.14737 6.117086,0.99155 -0.01371,0.24526 -0.367078,1.69406 -0.785266,3.21955 -0.999893,3.64749 -2.172521,7.94127 -2.319283,8.49245 -0.690609,2.59371 -2.273434,8.25656 -2.363122,8.45451 -0.492048,1.08602 -1.769951,1.84534 -3.044604,1.80909 z M 54.103701,198.56126 c -2.17809,-0.58701 -3.29218,-2.99796 -2.14648,-4.6451 0.3044,-0.43763 0.492027,-0.57825 4.706164,-3.52719 3.584482,-2.50834 5.988446,-4.19547 9.210868,-6.46433 2.944526,-2.07319 3.289709,-2.29505 3.824552,-2.45819 2.750688,-0.83899 5.377518,2.64346 3.594019,4.7647 -0.334947,0.39837 -0.477432,0.50598 -3.153156,2.38131 -3.306919,2.31772 -9.861648,6.91851 -11.761446,8.25542 -2.506583,1.7639 -3.116429,2.0055 -4.274521,1.69338 z m 9.700007,-40.23117 c -0.859833,-0.0729 -4.250664,-0.35446 -12.09276,-1.00398 -8.172558,-0.6769 -8.077495,-0.66358 -8.817573,-1.2361 -1.55951,-1.20644 -1.710202,-3.79328 -0.293183,-5.03289 0.741308,-0.64851 1.243368,-0.71079 3.923718,-0.48675 5.673648,0.47419 11.984498,0.99487 15.44836,1.27455 3.274317,0.2644 3.982906,0.53147 4.623108,1.74253 1.30588,2.47031 -0.162959,4.96566 -2.791668,4.74266 z m 71.167652,-29.16597 c -1.76861,-0.24146 -3.15941,-1.88094 -2.8674,-3.3801 0.13164,-0.67577 0.28986,-0.93922 1.76832,-2.94431 0.7672,-1.04048 3.12446,-4.24862 5.23836,-7.12922 6.01421,-8.19549 5.66007,-7.77087 6.77888,-8.12823 3.32455,-1.06193 5.33107,2.30765 3.13801,5.26973 -0.42155,0.56938 -2.7771,3.77583 -5.23455,7.12542 -5.81671,7.9284 -6.14668,8.36091 -6.61285,8.66786 -0.69703,0.45898 -1.41391,0.62737 -2.20877,0.51885 z m -57.744228,2.52449 c -0.857032,-0.11764 -1.082449,-0.27896 -2.941512,-2.10517 -1.574315,-1.5465 -8.661846,-8.50301 -10.927542,-10.72555 -2.105137,-2.06503 -2.137,-2.10072 -2.401412,-2.68988 -1.166424,-2.59904 1.727602,-5.63738 4.089301,-4.29323 0.294862,0.16782 1.354369,1.15255 3.450912,3.20736 3.89584,3.81829 10.490927,10.29221 11.024681,10.82213 2.223685,2.20768 0.644932,6.18778 -2.294428,5.78434 z m 27.224678,-12.04769 c -1.11599,-0.12996 -1.89051,-0.73724 -2.26728,-1.7777 -0.20149,-0.55643 -2.210853,-20.532445 -2.11966,-21.072548 0.51611,-3.056756 5.12471,-3.697868 6.03936,-0.840152 0.0889,0.277524 0.35319,2.624692 0.88043,7.81584 0.41442,4.08056 0.85759,8.39601 0.98483,9.58988 0.28937,2.71547 0.3134,3.47112 0.12828,4.03937 -0.47294,1.45186 -2.06106,2.42988 -3.64596,2.24531 z"
         id="path34"
         sodipodi:nodetypes="csccssccccsssscsssssssssssssscscsccsccssssssssssssssscssscccccs" /></g></g></svg>
